<svg width="64" height="64" viewBox="0 0 64 64" fill="none" xmlns="http://www.w3.org/2000/svg">
<rect width="64" height="64" fill="#604B83"/>
<g clip-path="url(#clip0_1_136)">
<path d="M35.5543 36.3969L32.9154 38.992V31.5452C32.9154 30.8682 32.4565 30.4169 31.7681 30.4169C31.0797 30.4169 30.6207 30.8682 30.6207 31.5452V38.992L27.9819 36.3969C27.5229 35.9456 26.8345 35.9456 26.3756 36.3969C25.9167 36.8482 25.9167 37.5252 26.3756 37.9765L30.965 42.4897C31.0797 42.6025 31.1944 42.7153 31.3092 42.7153C31.4239 42.8282 31.6534 42.8282 31.7681 42.8282C31.8829 42.8282 32.1123 42.8282 32.2271 42.7153C32.3418 42.6025 32.4565 42.6025 32.5712 42.4897L37.1606 37.9765C37.6196 37.5252 37.6196 36.8482 37.1606 36.3969C36.7017 35.9456 36.0133 35.9456 35.5544 36.3969H35.5543ZM44.2741 29.8528C43.012 28.1603 40.9468 27.032 38.6521 27.032H38.0784C36.3574 22.0676 30.965 19.2468 25.8019 20.6008C23.0483 21.2777 20.8684 22.8573 19.3768 25.2268C18 27.5962 17.5411 30.3041 18.2295 32.8991C18.6884 34.4788 19.3768 35.9455 20.5242 37.0738C20.9831 37.5252 21.6715 37.638 22.1304 37.1867C22.5893 36.7354 22.7041 36.0584 22.2452 35.6071C21.442 34.7044 20.7536 33.5761 20.5242 32.335C19.9505 30.3041 20.2947 28.1603 21.442 26.3551C22.5893 24.5498 24.3104 23.1959 26.3756 22.7446C30.6208 21.6163 35.0954 24.2114 36.128 28.386C36.2427 28.8373 36.7016 29.2887 37.2753 29.2887H38.6521C40.1437 29.2887 41.5205 29.9656 42.4384 31.2067C43.1268 32.2222 43.471 33.3505 43.2415 34.5916C43.012 35.8327 42.3236 36.8482 41.4058 37.5252C40.8321 37.8637 40.7174 38.5406 41.1763 39.1048C41.4058 39.4433 41.75 39.5561 42.0942 39.5561C42.3236 39.5561 42.5531 39.4433 42.7826 39.3305C44.2741 38.315 45.3067 36.7354 45.6509 34.9301C45.9951 33.1248 45.3067 31.4324 44.2741 29.8528H44.2741Z" fill="white"/>
</g>
<defs>
<clipPath id="clip0_1_136">
<rect width="28" height="23" fill="white" transform="translate(18 20)"/>
</clipPath>
</defs>
</svg>
