<svg width="64" height="64" viewBox="0 0 64 64" fill="none" xmlns="http://www.w3.org/2000/svg">
<rect width="64" height="64" fill="#604B83"/>
<path d="M18.1114 44.644C17.8514 43.8452 18.0836 43.1951 18.808 42.6935C21.0186 41.2446 23.7214 40.1672 26.9164 39.4613C25.3561 37.5108 24.2508 35.1424 23.6006 32.356C23.4149 31.3343 23.3127 30.2012 23.2941 28.9566C23.2755 27.712 23.4892 26.3281 23.935 24.8049C24.3808 23.2816 24.9938 21.9999 25.774 20.9597C27.3344 19.0092 29.4056 18.0339 31.9877 18.0339C34.5697 18.0339 36.6317 19.0092 38.1735 20.9597C38.9722 22.0185 39.5945 23.3002 40.0404 24.8049C40.4862 26.3095 40.6905 27.6934 40.6534 28.9566C40.6162 30.2198 40.514 31.3529 40.3469 32.356C39.6967 35.1424 38.5914 37.5108 37.031 39.4613C40.2261 40.1672 42.9289 41.2446 45.1395 42.6935C45.8639 43.1951 46.1054 43.8545 45.8639 44.6719C45.6224 45.4892 45.0559 45.8979 44.1642 45.8979H19.7833C19.3932 45.8979 19.0402 45.7771 18.7244 45.5357C18.4087 45.2942 18.2043 44.9969 18.1114 44.644ZM19.7833 44.1703H44.1642C42.1394 42.8143 39.6595 41.8112 36.7245 41.161L34.5233 40.7152C33.6874 41.2725 32.8422 41.5511 31.9877 41.5511C31.1332 41.5511 30.2787 41.2725 29.4242 40.7152L27.2508 41.161C24.2786 41.8112 21.7895 42.8143 19.7833 44.1703ZM25.161 27.3962C24.9195 29.3095 25.0681 31.2414 25.6068 33.1919C26.1455 35.1424 27.0372 36.87 28.2818 38.3746L28.5604 38.7647C29.6007 39.9722 30.7431 40.5759 31.9877 40.5759C33.2323 40.5759 34.3747 39.9722 35.4149 38.7647L35.6657 38.3746C36.9103 36.8514 37.8019 35.1238 38.3407 33.1919C38.8794 31.26 39.028 29.3281 38.7865 27.3962C38.5264 25.2971 37.8205 23.5046 36.6688 22.0185C35.5171 20.5324 33.9567 19.7894 31.9877 19.7894C30.0186 19.7894 28.4582 20.5324 27.3065 22.0185C26.1548 23.5046 25.4396 25.2971 25.161 27.3962Z" fill="white"/>
</svg>
